<?xml version="1.0" encoding="UTF-8" standalone="no"?>
<!DOCTYPE svg PUBLIC "-//W3C//DTD SVG 1.1//EN"
 "http://www.w3.org/Graphics/SVG/1.1/DTD/svg11.dtd">
<!-- Generated by graphviz version 2.47.0 (20210316.0004)
 -->
<!-- Title: dependencies Pages: 1 -->
<svg width="504pt" height="284pt"
 viewBox="0.00 0.00 504.00 284.00" xmlns="http://www.w3.org/2000/svg" xmlns:xlink="http://www.w3.org/1999/xlink">
<g id="graph0" class="graph" transform="scale(1 1) rotate(0) translate(4 280)">
<title>dependencies</title>
<polygon fill="white" stroke="transparent" points="-4,4 -4,-280 500,-280 500,4 -4,4"/>
<text text-anchor="start" x="227.01" y="-42.4" font-family="Times-12" font-weight="bold" font-size="14.00">Legend</text>
<polygon fill="#ffffb3" stroke="transparent" points="14,-10 14,-30 34,-30 34,-10 14,-10"/>
<text text-anchor="start" x="37.63" y="-15.4" font-family="Times-12" font-size="14.00"> &#160;Declarations</text>
<polygon fill="#8dd3c7" stroke="transparent" points="127,-10 127,-30 147,-30 147,-10 127,-10"/>
<text text-anchor="start" x="150.73" y="-15.4" font-family="Times-12" font-size="14.00"> &#160;Module</text>
<polygon fill="#80b1d3" stroke="transparent" points="213,-10 213,-30 233,-30 233,-10 213,-10"/>
<text text-anchor="start" x="236.78" y="-15.4" font-family="Times-12" font-size="14.00"> &#160;Bootstrap</text>
<polygon fill="#fdb462" stroke="transparent" points="310,-10 310,-30 330,-30 330,-10 310,-10"/>
<text text-anchor="start" x="333.67" y="-15.4" font-family="Times-12" font-size="14.00"> &#160;Providers</text>
<polygon fill="#fb8072" stroke="transparent" points="406,-10 406,-30 426,-30 426,-10 406,-10"/>
<text text-anchor="start" x="429.73" y="-15.4" font-family="Times-12" font-size="14.00"> &#160;Exports</text>
<g id="clust1" class="cluster">
<title>cluster_TasksModule</title>
<polygon fill="none" stroke="black" stroke-dasharray="1,5" points="95,-70 95,-268 401,-268 401,-70 95,-70"/>
</g>
<g id="clust2" class="cluster">
<title>cluster_TasksModule_declarations</title>
<polygon fill="none" stroke="black" points="233,-78 233,-130 393,-130 393,-78 233,-78"/>
</g>
<g id="clust5" class="cluster">
<title>cluster_TasksModule_exports</title>
<polygon fill="none" stroke="black" points="166,-208 166,-260 330,-260 330,-208 166,-208"/>
</g>
<g id="clust4" class="cluster">
<title>cluster_TasksModule_imports</title>
<polygon fill="none" stroke="black" points="103,-78 103,-130 225,-130 225,-78 103,-78"/>
</g>
<!-- TasksFormComponent -->
<g id="node1" class="node">
<title>TasksFormComponent</title>
<polygon fill="#ffffb3" stroke="black" points="385.32,-122 240.68,-122 240.68,-86 385.32,-86 385.32,-122"/>
<text text-anchor="middle" x="313" y="-99.8" font-family="Times,serif" font-size="14.00">TasksFormComponent</text>
</g>
<!-- TasksModule -->
<g id="node2" class="node">
<title>TasksModule</title>
<polygon fill="#8dd3c7" stroke="black" points="294.21,-187 291.21,-191 270.21,-191 267.21,-187 201.79,-187 201.79,-151 294.21,-151 294.21,-187"/>
<text text-anchor="middle" x="248" y="-164.8" font-family="Times,serif" font-size="14.00">TasksModule</text>
</g>
<!-- TasksFormComponent&#45;&gt;TasksModule -->
<g id="edge1" class="edge">
<title>TasksFormComponent&#45;&gt;TasksModule</title>
<path fill="none" stroke="black" d="M267.47,-122.11C267.47,-122.11 267.47,-140.99 267.47,-140.99"/>
<polygon fill="black" stroke="black" points="263.97,-140.99 267.47,-150.99 270.97,-140.99 263.97,-140.99"/>
</g>
<!-- TasksFormComponent  -->
<g id="node4" class="node">
<title>TasksFormComponent </title>
<polygon fill="#fb8072" stroke="black" points="321.82,-252 174.18,-252 174.18,-216 321.82,-216 321.82,-252"/>
<text text-anchor="middle" x="248" y="-229.8" font-family="Times,serif" font-size="14.00">TasksFormComponent </text>
</g>
<!-- TasksModule&#45;&gt;TasksFormComponent  -->
<g id="edge3" class="edge">
<title>TasksModule&#45;&gt;TasksFormComponent </title>
<path fill="none" stroke="black" stroke-dasharray="5,2" d="M248,-187.11C248,-187.11 248,-205.99 248,-205.99"/>
<polygon fill="black" stroke="black" points="244.5,-205.99 248,-215.99 251.5,-205.99 244.5,-205.99"/>
</g>
<!-- MaterialModule -->
<g id="node3" class="node">
<title>MaterialModule</title>
<polygon fill="#8dd3c7" stroke="black" points="217.47,-122 214.47,-126 193.47,-126 190.47,-122 110.53,-122 110.53,-86 217.47,-86 217.47,-122"/>
<text text-anchor="middle" x="164" y="-99.8" font-family="Times,serif" font-size="14.00">MaterialModule</text>
</g>
<!-- MaterialModule&#45;&gt;TasksModule -->
<g id="edge2" class="edge">
<title>MaterialModule&#45;&gt;TasksModule</title>
<path fill="none" stroke="black" d="M209.69,-122.11C209.69,-122.11 209.69,-140.99 209.69,-140.99"/>
<polygon fill="black" stroke="black" points="206.19,-140.99 209.69,-150.99 213.19,-140.99 206.19,-140.99"/>
</g>
</g>
</svg>
