<?xml version="1.0" encoding="UTF-8" standalone="no"?>
<!DOCTYPE svg PUBLIC "-//W3C//DTD SVG 1.1//EN"
 "http://www.w3.org/Graphics/SVG/1.1/DTD/svg11.dtd">
<!-- Generated by graphviz version 2.47.0 (20210316.0004)
 -->
<!-- Title: dependencies Pages: 1 -->
<svg width="1168pt" height="211pt"
 viewBox="0.00 0.00 1168.00 211.00" xmlns="http://www.w3.org/2000/svg" xmlns:xlink="http://www.w3.org/1999/xlink">
<g id="graph0" class="graph" transform="scale(1 1) rotate(0) translate(4 207)">
<title>dependencies</title>
<polygon fill="white" stroke="transparent" points="-4,4 -4,-207 1164,-207 1164,4 -4,4"/>
<text text-anchor="start" x="559.01" y="-42.4" font-family="Times-12" font-weight="bold" font-size="14.00">Legend</text>
<polygon fill="#ffffb3" stroke="transparent" points="346,-10 346,-30 366,-30 366,-10 346,-10"/>
<text text-anchor="start" x="369.63" y="-15.4" font-family="Times-12" font-size="14.00"> &#160;Declarations</text>
<polygon fill="#8dd3c7" stroke="transparent" points="459,-10 459,-30 479,-30 479,-10 459,-10"/>
<text text-anchor="start" x="482.73" y="-15.4" font-family="Times-12" font-size="14.00"> &#160;Module</text>
<polygon fill="#80b1d3" stroke="transparent" points="545,-10 545,-30 565,-30 565,-10 545,-10"/>
<text text-anchor="start" x="568.78" y="-15.4" font-family="Times-12" font-size="14.00"> &#160;Bootstrap</text>
<polygon fill="#fdb462" stroke="transparent" points="642,-10 642,-30 662,-30 662,-10 642,-10"/>
<text text-anchor="start" x="665.67" y="-15.4" font-family="Times-12" font-size="14.00"> &#160;Providers</text>
<polygon fill="#fb8072" stroke="transparent" points="738,-10 738,-30 758,-30 758,-10 738,-10"/>
<text text-anchor="start" x="761.73" y="-15.4" font-family="Times-12" font-size="14.00"> &#160;Exports</text>
<g id="clust1" class="cluster">
<title>cluster_ProjectsModule</title>
<polygon fill="none" stroke="black" stroke-dasharray="1,5" points="8,-70 8,-195 1152,-195 1152,-70 8,-70"/>
</g>
<g id="clust2" class="cluster">
<title>cluster_ProjectsModule_declarations</title>
<polygon fill="none" stroke="black" points="424,-78 424,-130 1144,-130 1144,-78 424,-78"/>
</g>
<g id="clust7" class="cluster">
<title>cluster_ProjectsModule_imports</title>
<polygon fill="none" stroke="black" points="16,-78 16,-130 416,-130 416,-78 16,-78"/>
</g>
<!-- AdminDashboardComponent -->
<g id="node1" class="node">
<title>AdminDashboardComponent</title>
<polygon fill="#ffffb3" stroke="black" points="1136.36,-122 955.64,-122 955.64,-86 1136.36,-86 1136.36,-122"/>
<text text-anchor="middle" x="1046" y="-99.8" font-family="Times,serif" font-size="14.00">AdminDashboardComponent</text>
</g>
<!-- ProjectsModule -->
<g id="node5" class="node">
<title>ProjectsModule</title>
<polygon fill="#8dd3c7" stroke="black" points="558.15,-187 555.15,-191 534.15,-191 531.15,-187 453.85,-187 453.85,-151 558.15,-151 558.15,-187"/>
<text text-anchor="middle" x="506" y="-164.8" font-family="Times,serif" font-size="14.00">ProjectsModule</text>
</g>
<!-- AdminDashboardComponent&#45;&gt;ProjectsModule -->
<g id="edge1" class="edge">
<title>AdminDashboardComponent&#45;&gt;ProjectsModule</title>
<path fill="none" stroke="black" d="M1046,-122.29C1046,-144.21 1046,-178 1046,-178 1046,-178 568.27,-178 568.27,-178"/>
<polygon fill="black" stroke="black" points="568.27,-174.5 558.27,-178 568.27,-181.5 568.27,-174.5"/>
</g>
<!-- ProjectsDetailsComponent -->
<g id="node2" class="node">
<title>ProjectsDetailsComponent</title>
<polygon fill="#ffffb3" stroke="black" points="938.08,-122 771.92,-122 771.92,-86 938.08,-86 938.08,-122"/>
<text text-anchor="middle" x="855" y="-99.8" font-family="Times,serif" font-size="14.00">ProjectsDetailsComponent</text>
</g>
<!-- ProjectsDetailsComponent&#45;&gt;ProjectsModule -->
<g id="edge2" class="edge">
<title>ProjectsDetailsComponent&#45;&gt;ProjectsModule</title>
<path fill="none" stroke="black" d="M855,-122.11C855,-141.34 855,-169 855,-169 855,-169 568.25,-169 568.25,-169"/>
<polygon fill="black" stroke="black" points="568.25,-165.5 558.25,-169 568.25,-172.5 568.25,-165.5"/>
</g>
<!-- ProjectsFormComponent -->
<g id="node3" class="node">
<title>ProjectsFormComponent</title>
<polygon fill="#ffffb3" stroke="black" points="754.26,-122 597.74,-122 597.74,-86 754.26,-86 754.26,-122"/>
<text text-anchor="middle" x="676" y="-99.8" font-family="Times,serif" font-size="14.00">ProjectsFormComponent</text>
</g>
<!-- ProjectsFormComponent&#45;&gt;ProjectsModule -->
<g id="edge3" class="edge">
<title>ProjectsFormComponent&#45;&gt;ProjectsModule</title>
<path fill="none" stroke="black" d="M676,-122.03C676,-138.4 676,-160 676,-160 676,-160 568.39,-160 568.39,-160"/>
<polygon fill="black" stroke="black" points="568.39,-156.5 558.39,-160 568.39,-163.5 568.39,-156.5"/>
</g>
<!-- ProjectsListComponent -->
<g id="node4" class="node">
<title>ProjectsListComponent</title>
<polygon fill="#ffffb3" stroke="black" points="580.21,-122 431.79,-122 431.79,-86 580.21,-86 580.21,-122"/>
<text text-anchor="middle" x="506" y="-99.8" font-family="Times,serif" font-size="14.00">ProjectsListComponent</text>
</g>
<!-- ProjectsListComponent&#45;&gt;ProjectsModule -->
<g id="edge4" class="edge">
<title>ProjectsListComponent&#45;&gt;ProjectsModule</title>
<path fill="none" stroke="black" d="M506,-122.11C506,-122.11 506,-140.99 506,-140.99"/>
<polygon fill="black" stroke="black" points="502.5,-140.99 506,-150.99 509.5,-140.99 502.5,-140.99"/>
</g>
<!-- MaterialModule -->
<g id="node6" class="node">
<title>MaterialModule</title>
<polygon fill="#8dd3c7" stroke="black" points="408.47,-122 405.47,-126 384.47,-126 381.47,-122 301.53,-122 301.53,-86 408.47,-86 408.47,-122"/>
<text text-anchor="middle" x="355" y="-99.8" font-family="Times,serif" font-size="14.00">MaterialModule</text>
</g>
<!-- MaterialModule&#45;&gt;ProjectsModule -->
<g id="edge5" class="edge">
<title>MaterialModule&#45;&gt;ProjectsModule</title>
<path fill="none" stroke="black" d="M355,-122.03C355,-138.4 355,-160 355,-160 355,-160 443.61,-160 443.61,-160"/>
<polygon fill="black" stroke="black" points="443.61,-163.5 453.61,-160 443.61,-156.5 443.61,-163.5"/>
</g>
<!-- ProjectsRoutingModule -->
<g id="node7" class="node">
<title>ProjectsRoutingModule</title>
<polygon fill="#8dd3c7" stroke="black" points="283.77,-122 280.77,-126 259.77,-126 256.77,-122 134.23,-122 134.23,-86 283.77,-86 283.77,-122"/>
<text text-anchor="middle" x="209" y="-99.8" font-family="Times,serif" font-size="14.00">ProjectsRoutingModule</text>
</g>
<!-- ProjectsRoutingModule&#45;&gt;ProjectsModule -->
<g id="edge6" class="edge">
<title>ProjectsRoutingModule&#45;&gt;ProjectsModule</title>
<path fill="none" stroke="black" d="M209,-122.11C209,-141.34 209,-169 209,-169 209,-169 443.59,-169 443.59,-169"/>
<polygon fill="black" stroke="black" points="443.59,-172.5 453.59,-169 443.59,-165.5 443.59,-172.5"/>
</g>
<!-- TasksModule -->
<g id="node8" class="node">
<title>TasksModule</title>
<polygon fill="#8dd3c7" stroke="black" points="116.21,-122 113.21,-126 92.21,-126 89.21,-122 23.79,-122 23.79,-86 116.21,-86 116.21,-122"/>
<text text-anchor="middle" x="70" y="-99.8" font-family="Times,serif" font-size="14.00">TasksModule</text>
</g>
<!-- TasksModule&#45;&gt;ProjectsModule -->
<g id="edge7" class="edge">
<title>TasksModule&#45;&gt;ProjectsModule</title>
<path fill="none" stroke="black" d="M70,-122.29C70,-144.21 70,-178 70,-178 70,-178 443.84,-178 443.84,-178"/>
<polygon fill="black" stroke="black" points="443.84,-181.5 453.84,-178 443.84,-174.5 443.84,-181.5"/>
</g>
</g>
</svg>
