<?xml version="1.0" encoding="UTF-8" standalone="no"?>
<!DOCTYPE svg PUBLIC "-//W3C//DTD SVG 1.1//EN"
 "http://www.w3.org/Graphics/SVG/1.1/DTD/svg11.dtd">
<!-- Generated by graphviz version 2.47.0 (20210316.0004)
 -->
<!-- Title: dependencies Pages: 1 -->
<svg width="1846pt" height="436pt"
 viewBox="0.00 0.00 1846.00 436.00" xmlns="http://www.w3.org/2000/svg" xmlns:xlink="http://www.w3.org/1999/xlink">
<g id="graph0" class="graph" transform="scale(1 1) rotate(0) translate(4 432)">
<title>dependencies</title>
<polygon fill="white" stroke="transparent" points="-4,4 -4,-432 1842,-432 1842,4 -4,4"/>
<text text-anchor="start" x="898.01" y="-42.4" font-family="Times-12" font-weight="bold" font-size="14.00">Legend</text>
<polygon fill="#ffffb3" stroke="transparent" points="685,-10 685,-30 705,-30 705,-10 685,-10"/>
<text text-anchor="start" x="708.63" y="-15.4" font-family="Times-12" font-size="14.00"> &#160;Declarations</text>
<polygon fill="#8dd3c7" stroke="transparent" points="798,-10 798,-30 818,-30 818,-10 798,-10"/>
<text text-anchor="start" x="821.73" y="-15.4" font-family="Times-12" font-size="14.00"> &#160;Module</text>
<polygon fill="#80b1d3" stroke="transparent" points="884,-10 884,-30 904,-30 904,-10 884,-10"/>
<text text-anchor="start" x="907.78" y="-15.4" font-family="Times-12" font-size="14.00"> &#160;Bootstrap</text>
<polygon fill="#fdb462" stroke="transparent" points="981,-10 981,-30 1001,-30 1001,-10 981,-10"/>
<text text-anchor="start" x="1004.67" y="-15.4" font-family="Times-12" font-size="14.00"> &#160;Providers</text>
<polygon fill="#fb8072" stroke="transparent" points="1077,-10 1077,-30 1097,-30 1097,-10 1077,-10"/>
<text text-anchor="start" x="1100.73" y="-15.4" font-family="Times-12" font-size="14.00"> &#160;Exports</text>
<g id="clust1" class="cluster">
<title>cluster_AppModule</title>
<polygon fill="none" stroke="black" stroke-dasharray="1,5" points="926,-70 926,-420 1474,-420 1474,-70 926,-70"/>
</g>
<g id="clust2" class="cluster">
<title>cluster_AppModule_declarations</title>
<polygon fill="none" stroke="black" points="1211,-230 1211,-282 1466,-282 1466,-230 1211,-230"/>
</g>
<g id="clust5" class="cluster">
<title>cluster_AppModule_imports</title>
<polygon fill="none" stroke="black" points="934,-78 934,-282 1203,-282 1203,-78 934,-78"/>
</g>
<g id="clust7" class="cluster">
<title>cluster_AppModule_bootstrap</title>
<polygon fill="none" stroke="black" points="1118,-360 1118,-412 1242,-412 1242,-360 1118,-360"/>
</g>
<g id="clust21" class="cluster">
<title>cluster_ProjectsModule</title>
<polygon fill="none" stroke="black" stroke-dasharray="1,5" points="8,-146 8,-214 918,-214 918,-146 8,-146"/>
</g>
<g id="clust22" class="cluster">
<title>cluster_ProjectsModule_declarations</title>
<polygon fill="none" stroke="black" points="190,-154 190,-206 910,-206 910,-154 190,-154"/>
</g>
<g id="clust27" class="cluster">
<title>cluster_ProjectsModule_imports</title>
<polygon fill="none" stroke="black" points="16,-154 16,-206 182,-206 182,-154 16,-154"/>
</g>
<g id="clust37" class="cluster">
<title>cluster_SharedModule</title>
<polygon fill="none" stroke="black" stroke-dasharray="1,5" points="1482,-70 1482,-138 1680,-138 1680,-70 1482,-70"/>
</g>
<g id="clust38" class="cluster">
<title>cluster_SharedModule_declarations</title>
<polygon fill="none" stroke="black" points="1490,-78 1490,-130 1672,-130 1672,-78 1490,-78"/>
</g>
<g id="clust44" class="cluster">
<title>cluster_TasksModule</title>
<polygon fill="none" stroke="black" stroke-dasharray="1,5" points="1482,-222 1482,-290 1830,-290 1830,-222 1482,-222"/>
</g>
<g id="clust45" class="cluster">
<title>cluster_TasksModule_declarations</title>
<polygon fill="none" stroke="black" points="1662,-230 1662,-282 1822,-282 1822,-230 1662,-230"/>
</g>
<g id="clust48" class="cluster">
<title>cluster_TasksModule_exports</title>
<polygon fill="none" stroke="black" points="1490,-230 1490,-282 1654,-282 1654,-230 1490,-230"/>
</g>
<!-- AppComponent -->
<g id="node1" class="node">
<title>AppComponent</title>
<polygon fill="#ffffb3" stroke="black" points="1457.94,-274 1352.06,-274 1352.06,-238 1457.94,-238 1457.94,-274"/>
<text text-anchor="middle" x="1405" y="-251.8" font-family="Times,serif" font-size="14.00">AppComponent</text>
</g>
<!-- AppModule -->
<g id="node3" class="node">
<title>AppModule</title>
<polygon fill="#8dd3c7" stroke="black" points="1221.66,-339 1218.66,-343 1197.66,-343 1194.66,-339 1138.34,-339 1138.34,-303 1221.66,-303 1221.66,-339"/>
<text text-anchor="middle" x="1180" y="-316.8" font-family="Times,serif" font-size="14.00">AppModule</text>
</g>
<!-- AppComponent&#45;&gt;AppModule -->
<g id="edge1" class="edge">
<title>AppComponent&#45;&gt;AppModule</title>
<path fill="none" stroke="black" d="M1405,-274.28C1405,-295.32 1405,-327 1405,-327 1405,-327 1231.79,-327 1231.79,-327"/>
<polygon fill="black" stroke="black" points="1231.79,-323.5 1221.79,-327 1231.79,-330.5 1231.79,-323.5"/>
</g>
<!-- HomeComponent -->
<g id="node2" class="node">
<title>HomeComponent</title>
<polygon fill="#ffffb3" stroke="black" points="1334.55,-274 1219.45,-274 1219.45,-238 1334.55,-238 1334.55,-274"/>
<text text-anchor="middle" x="1277" y="-251.8" font-family="Times,serif" font-size="14.00">HomeComponent</text>
</g>
<!-- HomeComponent&#45;&gt;AppModule -->
<g id="edge2" class="edge">
<title>HomeComponent&#45;&gt;AppModule</title>
<path fill="none" stroke="black" d="M1228.15,-274.02C1228.15,-291.37 1228.15,-315 1228.15,-315 1228.15,-315 1227.52,-315 1227.52,-315"/>
<polygon fill="black" stroke="black" points="1231.85,-311.5 1221.85,-315 1231.85,-318.5 1231.85,-311.5"/>
</g>
<!-- AppComponent  -->
<g id="node9" class="node">
<title>AppComponent </title>
<polygon fill="#80b1d3" stroke="black" points="1234.44,-404 1125.56,-404 1125.56,-368 1234.44,-368 1234.44,-404"/>
<text text-anchor="middle" x="1180" y="-381.8" font-family="Times,serif" font-size="14.00">AppComponent </text>
</g>
<!-- AppModule&#45;&gt;AppComponent  -->
<g id="edge8" class="edge">
<title>AppModule&#45;&gt;AppComponent </title>
<path fill="none" stroke="black" stroke-dasharray="1,5" d="M1180,-339.11C1180,-339.11 1180,-357.99 1180,-357.99"/>
<polygon fill="black" stroke="black" points="1176.5,-357.99 1180,-367.99 1183.5,-357.99 1176.5,-357.99"/>
</g>
<!-- AppRoutingModule -->
<g id="node4" class="node">
<title>AppRoutingModule</title>
<polygon fill="#8dd3c7" stroke="black" points="1195.27,-122 1192.27,-126 1171.27,-126 1168.27,-122 1066.73,-122 1066.73,-86 1195.27,-86 1195.27,-122"/>
<text text-anchor="middle" x="1131" y="-99.8" font-family="Times,serif" font-size="14.00">AppRoutingModule</text>
</g>
<!-- AppRoutingModule&#45;&gt;AppModule -->
<g id="edge3" class="edge">
<title>AppRoutingModule&#45;&gt;AppModule</title>
<path fill="none" stroke="black" d="M1182.8,-122.13C1182.8,-122.13 1182.8,-292.77 1182.8,-292.77"/>
<polygon fill="black" stroke="black" points="1179.3,-292.77 1182.8,-302.77 1186.3,-292.77 1179.3,-292.77"/>
</g>
<!-- MaterialModule -->
<g id="node5" class="node">
<title>MaterialModule</title>
<polygon fill="#8dd3c7" stroke="black" points="1048.47,-122 1045.47,-126 1024.47,-126 1021.47,-122 941.53,-122 941.53,-86 1048.47,-86 1048.47,-122"/>
<text text-anchor="middle" x="995" y="-99.8" font-family="Times,serif" font-size="14.00">MaterialModule</text>
</g>
<!-- MaterialModule&#45;&gt;AppModule -->
<g id="edge4" class="edge">
<title>MaterialModule&#45;&gt;AppModule</title>
<path fill="none" stroke="black" d="M1048.66,-110C1054.44,-110 1058.27,-110 1058.27,-110 1058.27,-110 1058.27,-315 1058.27,-315 1058.27,-315 1128.11,-315 1128.11,-315"/>
<polygon fill="black" stroke="black" points="1128.11,-318.5 1138.11,-315 1128.11,-311.5 1128.11,-318.5"/>
</g>
<!-- ProjectsModule -->
<g id="node6" class="node">
<title>ProjectsModule</title>
<polygon fill="#8dd3c7" stroke="black" points="1046.15,-274 1043.15,-278 1022.15,-278 1019.15,-274 941.85,-274 941.85,-238 1046.15,-238 1046.15,-274"/>
<text text-anchor="middle" x="994" y="-251.8" font-family="Times,serif" font-size="14.00">ProjectsModule</text>
</g>
<!-- MaterialModule&#45;&gt;ProjectsModule -->
<g id="edge13" class="edge">
<title>MaterialModule&#45;&gt;ProjectsModule</title>
<path fill="none" stroke="black" d="M955.16,-122.03C955.16,-122.03 955.16,-227.99 955.16,-227.99"/>
<polygon fill="black" stroke="black" points="951.66,-227.99 955.16,-237.99 958.66,-227.99 951.66,-227.99"/>
</g>
<!-- SharedModule -->
<g id="node7" class="node">
<title>SharedModule</title>
<polygon fill="#8dd3c7" stroke="black" points="1170.42,-198 1167.42,-202 1146.42,-202 1143.42,-198 1071.58,-198 1071.58,-162 1170.42,-162 1170.42,-198"/>
<text text-anchor="middle" x="1121" y="-175.8" font-family="Times,serif" font-size="14.00">SharedModule</text>
</g>
<!-- MaterialModule&#45;&gt;SharedModule -->
<g id="edge17" class="edge">
<title>MaterialModule&#45;&gt;SharedModule</title>
<path fill="none" stroke="black" d="M1048.79,-98C1056.81,-98 1062.44,-98 1062.44,-98 1062.44,-98 1062.44,-180 1062.44,-180 1062.44,-180 1063.36,-180 1063.36,-180"/>
<polygon fill="black" stroke="black" points="1061.59,-183.5 1071.59,-180 1061.59,-176.5 1061.59,-183.5"/>
</g>
<!-- TasksModule -->
<g id="node8" class="node">
<title>TasksModule</title>
<polygon fill="#8dd3c7" stroke="black" points="1054.21,-198 1051.21,-202 1030.21,-202 1027.21,-198 961.79,-198 961.79,-162 1054.21,-162 1054.21,-198"/>
<text text-anchor="middle" x="1008" y="-175.8" font-family="Times,serif" font-size="14.00">TasksModule</text>
</g>
<!-- MaterialModule&#45;&gt;TasksModule -->
<g id="edge19" class="edge">
<title>MaterialModule&#45;&gt;TasksModule</title>
<path fill="none" stroke="black" d="M1005.19,-122.01C1005.19,-122.01 1005.19,-151.85 1005.19,-151.85"/>
<polygon fill="black" stroke="black" points="1001.69,-151.85 1005.19,-161.85 1008.69,-151.85 1001.69,-151.85"/>
</g>
<!-- ProjectsModule&#45;&gt;AppModule -->
<g id="edge5" class="edge">
<title>ProjectsModule&#45;&gt;AppModule</title>
<path fill="none" stroke="black" d="M1046.43,-256C1091.35,-256 1148.85,-256 1148.85,-256 1148.85,-256 1148.85,-292.89 1148.85,-292.89"/>
<polygon fill="black" stroke="black" points="1145.35,-292.89 1148.85,-302.89 1152.35,-292.89 1145.35,-292.89"/>
</g>
<!-- SharedModule&#45;&gt;AppModule -->
<g id="edge6" class="edge">
<title>SharedModule&#45;&gt;AppModule</title>
<path fill="none" stroke="black" d="M1159.53,-198.14C1159.53,-198.14 1159.53,-292.93 1159.53,-292.93"/>
<polygon fill="black" stroke="black" points="1156.03,-292.92 1159.53,-302.93 1163.03,-292.93 1156.03,-292.92"/>
</g>
<!-- TasksModule&#45;&gt;AppModule -->
<g id="edge7" class="edge">
<title>TasksModule&#45;&gt;AppModule</title>
<path fill="none" stroke="black" d="M1052.16,-198.03C1052.16,-237.28 1052.16,-327 1052.16,-327 1052.16,-327 1128.14,-327 1128.14,-327"/>
<polygon fill="black" stroke="black" points="1128.14,-330.5 1138.14,-327 1128.14,-323.5 1128.14,-330.5"/>
</g>
<!-- TasksModule&#45;&gt;ProjectsModule -->
<g id="edge15" class="edge">
<title>TasksModule&#45;&gt;ProjectsModule</title>
<path fill="none" stroke="black" d="M1004.11,-198.01C1004.11,-198.01 1004.11,-227.85 1004.11,-227.85"/>
<polygon fill="black" stroke="black" points="1000.61,-227.85 1004.11,-237.85 1007.61,-227.85 1000.61,-227.85"/>
</g>
<!-- TasksFormComponent  -->
<g id="node17" class="node">
<title>TasksFormComponent </title>
<polygon fill="#fb8072" stroke="black" points="1645.82,-274 1498.18,-274 1498.18,-238 1645.82,-238 1645.82,-274"/>
<text text-anchor="middle" x="1572" y="-251.8" font-family="Times,serif" font-size="14.00">TasksFormComponent </text>
</g>
<!-- TasksModule&#45;&gt;TasksFormComponent  -->
<g id="edge20" class="edge">
<title>TasksModule&#45;&gt;TasksFormComponent </title>
<path fill="none" stroke="black" stroke-dasharray="5,2" d="M1050.21,-198.04C1050.21,-210.56 1050.21,-225 1050.21,-225 1050.21,-225 1547.36,-225 1547.36,-225 1547.36,-225 1547.36,-227.97 1547.36,-227.97"/>
<polygon fill="black" stroke="black" points="1543.86,-227.97 1547.36,-237.97 1550.86,-227.97 1543.86,-227.97"/>
</g>
<!-- AdminDashboardComponent -->
<g id="node10" class="node">
<title>AdminDashboardComponent</title>
<polygon fill="#ffffb3" stroke="black" points="902.36,-198 721.64,-198 721.64,-162 902.36,-162 902.36,-198"/>
<text text-anchor="middle" x="812" y="-175.8" font-family="Times,serif" font-size="14.00">AdminDashboardComponent</text>
</g>
<!-- AdminDashboardComponent&#45;&gt;ProjectsModule -->
<g id="edge9" class="edge">
<title>AdminDashboardComponent&#45;&gt;ProjectsModule</title>
<path fill="none" stroke="black" d="M902.61,-180C927.81,-180 948.42,-180 948.42,-180 948.42,-180 948.42,-227.99 948.42,-227.99"/>
<polygon fill="black" stroke="black" points="944.92,-227.99 948.42,-237.99 951.92,-227.99 944.92,-227.99"/>
</g>
<!-- ProjectsDetailsComponent -->
<g id="node11" class="node">
<title>ProjectsDetailsComponent</title>
<polygon fill="#ffffb3" stroke="black" points="704.08,-198 537.92,-198 537.92,-162 704.08,-162 704.08,-198"/>
<text text-anchor="middle" x="621" y="-175.8" font-family="Times,serif" font-size="14.00">ProjectsDetailsComponent</text>
</g>
<!-- ProjectsDetailsComponent&#45;&gt;ProjectsModule -->
<g id="edge10" class="edge">
<title>ProjectsDetailsComponent&#45;&gt;ProjectsModule</title>
<path fill="none" stroke="black" d="M621,-198.03C621,-217.58 621,-246 621,-246 621,-246 931.74,-246 931.74,-246"/>
<polygon fill="black" stroke="black" points="931.74,-249.5 941.74,-246 931.74,-242.5 931.74,-249.5"/>
</g>
<!-- ProjectsFormComponent -->
<g id="node12" class="node">
<title>ProjectsFormComponent</title>
<polygon fill="#ffffb3" stroke="black" points="520.26,-198 363.74,-198 363.74,-162 520.26,-162 520.26,-198"/>
<text text-anchor="middle" x="442" y="-175.8" font-family="Times,serif" font-size="14.00">ProjectsFormComponent</text>
</g>
<!-- ProjectsFormComponent&#45;&gt;ProjectsModule -->
<g id="edge11" class="edge">
<title>ProjectsFormComponent&#45;&gt;ProjectsModule</title>
<path fill="none" stroke="black" d="M442,-198.04C442,-219.66 442,-253 442,-253 442,-253 931.57,-253 931.57,-253"/>
<polygon fill="black" stroke="black" points="931.57,-256.5 941.57,-253 931.57,-249.5 931.57,-256.5"/>
</g>
<!-- ProjectsListComponent -->
<g id="node13" class="node">
<title>ProjectsListComponent</title>
<polygon fill="#ffffb3" stroke="black" points="346.21,-198 197.79,-198 197.79,-162 346.21,-162 346.21,-198"/>
<text text-anchor="middle" x="272" y="-175.8" font-family="Times,serif" font-size="14.00">ProjectsListComponent</text>
</g>
<!-- ProjectsListComponent&#45;&gt;ProjectsModule -->
<g id="edge12" class="edge">
<title>ProjectsListComponent&#45;&gt;ProjectsModule</title>
<path fill="none" stroke="black" d="M272,-198.15C272,-221.76 272,-260 272,-260 272,-260 931.79,-260 931.79,-260"/>
<polygon fill="black" stroke="black" points="931.79,-263.5 941.79,-260 931.79,-256.5 931.79,-263.5"/>
</g>
<!-- ProjectsRoutingModule -->
<g id="node14" class="node">
<title>ProjectsRoutingModule</title>
<polygon fill="#8dd3c7" stroke="black" points="173.77,-198 170.77,-202 149.77,-202 146.77,-198 24.23,-198 24.23,-162 173.77,-162 173.77,-198"/>
<text text-anchor="middle" x="99" y="-175.8" font-family="Times,serif" font-size="14.00">ProjectsRoutingModule</text>
</g>
<!-- ProjectsRoutingModule&#45;&gt;ProjectsModule -->
<g id="edge14" class="edge">
<title>ProjectsRoutingModule&#45;&gt;ProjectsModule</title>
<path fill="none" stroke="black" d="M99,-198.03C99,-223.51 99,-267 99,-267 99,-267 931.68,-267 931.68,-267"/>
<polygon fill="black" stroke="black" points="931.68,-270.5 941.68,-267 931.68,-263.5 931.68,-270.5"/>
</g>
<!-- ConfirmDialogComponent -->
<g id="node15" class="node">
<title>ConfirmDialogComponent</title>
<polygon fill="#ffffb3" stroke="black" points="1664.37,-122 1497.63,-122 1497.63,-86 1664.37,-86 1664.37,-122"/>
<text text-anchor="middle" x="1581" y="-99.8" font-family="Times,serif" font-size="14.00">ConfirmDialogComponent</text>
</g>
<!-- ConfirmDialogComponent&#45;&gt;SharedModule -->
<g id="edge16" class="edge">
<title>ConfirmDialogComponent&#45;&gt;SharedModule</title>
<path fill="none" stroke="black" d="M1596.64,-122.01C1596.64,-144.49 1596.64,-180 1596.64,-180 1596.64,-180 1180.56,-180 1180.56,-180"/>
<polygon fill="black" stroke="black" points="1180.56,-176.5 1170.56,-180 1180.56,-183.5 1180.56,-176.5"/>
</g>
<!-- TasksFormComponent -->
<g id="node16" class="node">
<title>TasksFormComponent</title>
<polygon fill="#ffffb3" stroke="black" points="1814.32,-274 1669.68,-274 1669.68,-238 1814.32,-238 1814.32,-274"/>
<text text-anchor="middle" x="1742" y="-251.8" font-family="Times,serif" font-size="14.00">TasksFormComponent</text>
</g>
<!-- TasksFormComponent&#45;&gt;TasksModule -->
<g id="edge18" class="edge">
<title>TasksFormComponent&#45;&gt;TasksModule</title>
<path fill="none" stroke="black" d="M1742,-237.85C1742,-225.73 1742,-212 1742,-212 1742,-212 1048.27,-212 1048.27,-212 1048.27,-212 1048.27,-208.24 1048.27,-208.24"/>
<polygon fill="black" stroke="black" points="1051.77,-208.24 1048.27,-198.24 1044.77,-208.24 1051.77,-208.24"/>
</g>
</g>
</svg>
